<?xml version="1.0" standalone="no"?>
<!DOCTYPE svg PUBLIC "-//W3C//DTD SVG 20010904//EN"
 "http://www.w3.org/TR/2001/REC-SVG-20010904/DTD/svg10.dtd">
<svg version="1.0" xmlns="http://www.w3.org/2000/svg"
 width="500.000000pt" height="499.000000pt" viewBox="0 0 500.000000 499.000000"
 preserveAspectRatio="xMidYMid meet">

<g transform="translate(0.000000,499.000000) scale(0.100000,-0.100000)"
fill="#000000" stroke="none">
<path d="M2234 4505 c-344 -45 -683 -183 -964 -393 -163 -122 -352 -326 -469
-507 -67 -103 -171 -315 -211 -430 -72 -205 -110 -434 -110 -655 0 -996 716
-1827 1710 -1985 158 -26 438 -23 605 4 333 55 619 176 892 378 90 66 267 235
343 328 128 156 257 378 323 555 197 527 175 1075 -62 1575 -151 317 -364 570
-651 775 -402 287 -920 417 -1406 355z m1376 -662 c35 -148 87 -365 116 -483
29 -118 50 -218 48 -222 -4 -7 -214 -58 -238 -58 -10 0 -27 51 -56 173 -23 94
-45 176 -50 181 -8 8 -268 -50 -283 -64 -5 -4 11 -87 34 -184 23 -97 40 -179
37 -181 -8 -8 -242 -64 -249 -59 -4 2 -10 21 -14 41 -3 21 -54 233 -111 472
-58 238 -104 440 -102 449 4 18 235 80 247 66 4 -5 25 -83 46 -174 21 -91 42
-169 46 -174 13 -15 289 54 289 71 0 8 -18 89 -40 180 -22 92 -37 170 -32 175
8 8 195 56 227 57 19 1 27 -23 85 -266z m-966 -60 c14 -60 26 -113 26 -119 0
-7 -50 -24 -110 -39 -61 -15 -112 -30 -114 -34 -2 -3 34 -163 80 -355 46 -192
84 -357 84 -366 0 -12 -27 -22 -115 -44 -63 -15 -120 -26 -126 -24 -11 4 -42
123 -139 533 -24 99 -47 184 -51 189 -4 4 -58 -4 -119 -19 -62 -14 -113 -25
-115 -23 -7 8 -56 231 -51 235 2 3 125 34 273 69 147 36 302 73 343 83 114 29
104 35 134 -86z m-871 -274 c21 -89 34 -165 30 -169 -4 -4 -116 -33 -248 -65
-132 -31 -247 -60 -255 -64 -12 -7 -14 -24 -12 -82 2 -41 7 -78 11 -82 5 -4
30 6 57 22 64 39 182 71 264 71 279 -1 490 -227 490 -525 0 -152 -43 -258
-150 -366 -51 -52 -85 -76 -160 -112 -206 -98 -399 -101 -585 -7 -86 43 -180
122 -172 143 4 11 215 178 253 200 5 3 36 -7 69 -24 137 -69 300 -10 335 121
27 98 -42 206 -143 224 -87 16 -228 -36 -310 -113 l-53 -50 -94 27 -94 28 -22
239 c-12 132 -28 303 -34 380 -6 77 -12 149 -13 159 -2 17 22 25 198 67 110
27 281 69 380 93 99 24 189 44 200 45 18 1 24 -16 58 -160z m2012 -554 c29
-28 31 -48 10 -89 -19 -36 -20 -34 13 -38 19 -2 27 -9 27 -22 0 -15 -14 -22
-75 -37 -41 -9 -78 -15 -83 -12 -4 3 3 19 16 36 43 57 67 113 54 126 -17 17
-35 13 -47 -9 -6 -11 -20 -20 -30 -20 -30 0 -26 44 6 69 36 28 79 27 109 -4z
m-182 -46 c21 -26 22 -68 2 -95 -21 -28 -18 -35 13 -32 21 2 28 -2 30 -18 3
-18 -7 -22 -73 -38 -42 -10 -79 -15 -82 -12 -3 3 13 33 36 67 45 69 48 80 25
100 -14 11 -19 10 -34 -9 -10 -12 -28 -22 -39 -22 -32 0 -26 34 11 65 37 31
82 29 111 -6z m-200 -40 c31 -23 51 -88 42 -130 -8 -37 -49 -69 -87 -69 -21 0
-41 11 -64 34 -30 30 -34 40 -34 84 0 44 4 54 31 76 37 31 77 33 112 5z m-196
-51 c27 -25 29 -57 8 -98 l-16 -30 31 0 c26 0 31 -3 28 -22 -2 -18 -16 -24
-78 -39 -41 -9 -77 -15 -80 -13 -2 3 2 15 10 27 61 98 72 118 67 132 -9 22
-42 18 -59 -7 -9 -14 -20 -19 -31 -15 -24 9 -21 34 8 62 31 32 80 33 112 3z
m-323 -64 c7 -19 -1 -34 -19 -34 -24 0 -25 -14 -6 -88 10 -39 16 -73 13 -76
-3 -4 -15 -6 -27 -6 -18 0 -24 9 -34 58 -20 93 -20 93 -49 90 -21 -2 -28 2
-30 18 -3 19 5 24 55 37 76 20 90 20 97 1z m-189 -59 c0 -14 -7 -20 -22 -20
-13 0 -28 -6 -34 -12 -13 -13 -9 -16 44 -27 31 -7 67 -39 67 -60 0 -27 -44
-67 -80 -72 -46 -7 -81 16 -61 40 8 9 22 14 35 11 24 -6 51 8 42 23 -3 5 -20
12 -38 16 -66 13 -87 60 -46 103 29 31 93 30 93 -2z m-157 -31 c3 -18 -4 -23
-33 -28 -49 -9 -46 -40 4 -40 45 -1 52 -23 12 -37 -48 -17 -40 -40 12 -37 36
3 42 0 45 -18 3 -19 -5 -23 -58 -33 -34 -7 -64 -10 -67 -8 -7 8 -53 191 -48
195 7 7 100 30 115 29 8 -1 16 -12 18 -23z m442 -49 c15 -18 -2 -45 -30 -45
-23 0 -34 28 -19 46 15 18 33 18 49 -1z m964 -180 c23 -91 23 -90 -39 -104
-30 -7 -57 -16 -59 -20 -3 -4 3 -40 11 -80 l17 -73 30 5 c17 3 45 9 62 12 32
7 32 7 43 -46 7 -30 14 -63 17 -75 5 -19 -1 -23 -46 -34 -28 -7 -54 -19 -57
-26 -6 -15 25 -154 37 -167 4 -5 34 -1 68 7 33 9 62 16 65 16 8 0 42 -149 36
-155 -9 -9 -251 -66 -288 -68 -31 -2 -35 1 -42 28 -16 73 -63 269 -119 500
-33 138 -59 256 -58 264 2 9 49 25 138 47 74 17 142 32 151 33 12 1 21 -16 33
-64z m-393 -94 c12 -45 13 -64 5 -67 -43 -16 -412 -101 -418 -96 -3 4 -13 33
-21 64 -11 43 -12 60 -4 65 16 10 399 102 412 99 5 -2 17 -31 26 -65z m-493
-196 c18 -71 61 -251 97 -399 36 -147 65 -270 65 -271 0 -4 -135 -35 -153 -35
-9 0 -50 65 -98 155 -46 85 -87 155 -92 155 -5 0 -6 -8 -3 -17 22 -74 76 -308
73 -316 -4 -13 -140 -49 -148 -39 -3 4 -31 115 -62 247 -31 132 -74 311 -95
398 -35 141 -37 159 -23 166 31 15 133 33 141 24 5 -4 46 -73 91 -153 45 -80
83 -147 85 -149 16 -18 9 29 -26 169 -22 90 -37 166 -34 169 9 10 139 38 145
32 3 -3 20 -64 37 -136z m574 -141 c59 -235 67 -298 44 -359 -53 -138 -290
-170 -381 -51 -21 28 -39 83 -81 253 -29 120 -54 226 -54 235 0 9 8 19 18 22
69 19 155 37 159 32 3 -2 27 -98 55 -213 53 -223 64 -256 89 -261 27 -5 30 26
10 111 -11 45 -36 149 -56 231 -19 82 -34 150 -33 151 8 6 164 43 173 41 6 -1
31 -88 57 -192z m-1092 124 c5 -24 14 -57 19 -74 11 -42 5 -50 -49 -58 -71
-10 -72 -12 -50 -95 10 -40 21 -75 23 -78 3 -2 22 0 44 6 73 21 80 13 99 -100
l6 -35 -56 -13 c-31 -7 -56 -18 -56 -24 1 -21 35 -152 43 -164 5 -9 23 -7 72
6 l65 18 10 -41 c6 -22 15 -57 20 -76 5 -19 6 -37 2 -41 -8 -8 -313 -81 -317
-77 -3 3 -19 67 -109 441 -74 302 -86 361 -79 368 6 6 256 72 295 78 4 1 12
-18 18 -41z m-356 -85 c3 -21 12 -99 21 -173 9 -74 29 -243 45 -375 15 -132
25 -243 22 -246 -13 -12 -271 -71 -281 -64 -6 3 -11 10 -11 16 0 5 -62 170
-139 366 -76 197 -141 368 -145 380 -6 20 -1 23 89 43 53 13 97 21 99 19 2 -2
42 -116 89 -254 47 -137 86 -239 86 -225 0 14 -17 131 -38 260 -21 129 -35
239 -31 243 7 8 141 44 172 46 11 1 18 -10 22 -36z m-465 -393 c60 -157 126
-325 145 -375 20 -49 36 -97 36 -105 0 -12 -24 -22 -87 -37 -49 -12 -91 -19
-94 -15 -3 4 -14 35 -24 70 -16 55 -21 62 -44 62 -47 0 -51 -9 -40 -84 6 -37
7 -72 2 -76 -13 -12 -173 -48 -178 -41 -2 4 -20 142 -40 307 -19 164 -41 347
-48 406 -8 59 -11 111 -8 115 8 12 255 71 263 64 4 -3 56 -134 117 -291z"/>
<path d="M3322 2828 c-26 -26 -1 -108 33 -108 21 0 44 38 37 63 -6 27 -31 57
-47 57 -6 0 -16 -5 -23 -12z"/>
<path d="M1525 1669 c3 -19 12 -88 20 -153 8 -66 19 -124 23 -128 12 -12 65
10 59 25 -2 6 -23 71 -46 142 -44 133 -64 176 -56 114z"/>
</g>
</svg>
